<mxfile host="app.diagrams.net" modified="2023-05-24T07:20:28.728Z" agent="Mozilla/5.0 (Windows NT 10.0; Win64; x64) AppleWebKit/537.36 (KHTML, like Gecko) Chrome/113.0.0.0 Safari/537.36" version="21.3.3" etag="pcmdDRuRF4MmAMz4w9uA" type="github">
  <diagram name="Страница 1" id="CXx4P1_ULokcToh2MMPy">
    <mxGraphModel>
      <root>
        <mxCell id="0" />
        <mxCell id="1" parent="0" />
      </root>
    </mxGraphModel>
  </diagram>
</mxfile>
